<svg width="35" height="35" viewBox="0 0 12 12" fill="none" xmlns="http://www.w3.org/2000/svg">
<path d="M4.54262 9.80855C2.09943 10.5415 2.09943 8.58696 1.12216 8.34264M7.96307 11.2745V9.38343C7.9814 9.15043 7.94992 8.9162 7.87073 8.69631C7.79153 8.47642 7.66643 8.2759 7.50375 8.10809C9.03807 7.93707 10.6506 7.35559 10.6506 4.68764C10.6504 4.00542 10.388 3.34936 9.91762 2.85525C10.1404 2.25839 10.1246 1.59865 9.87364 1.01309C9.87364 1.01309 9.29705 0.842069 7.96307 1.73627C6.84312 1.43274 5.66257 1.43274 4.54262 1.73627C3.20864 0.842069 2.63205 1.01309 2.63205 1.01309C2.38107 1.59865 2.36532 2.25839 2.58807 2.85525C2.11416 3.35303 1.85146 4.01501 1.85512 4.7023C1.85512 7.35071 3.46762 7.93218 5.00193 8.12275C4.84117 8.28887 4.71719 8.48698 4.63805 8.70419C4.55891 8.9214 4.5264 9.15283 4.54262 9.38343V11.2745" stroke="white" stroke-width="0.977273" stroke-linecap="round" stroke-linejoin="round"/>
</svg>  