<svg width="35" height="35" viewBox="0 0 10 10" fill="none" xmlns="http://www.w3.org/2000/svg">
<path d="M7.20454 2.93182C7.98211 2.93182 8.72783 3.24071 9.27765 3.79053C9.82747 4.34035 10.1364 5.08607 10.1364 5.86364V9.28409H8.18181V5.86364C8.18181 5.60445 8.07885 5.35587 7.89558 5.1726C7.7123 4.98933 7.46373 4.88636 7.20454 4.88636C6.94535 4.88636 6.69678 4.98933 6.51351 5.1726C6.33023 5.35587 6.22727 5.60445 6.22727 5.86364V9.28409H4.27272V5.86364C4.27272 5.08607 4.58161 4.34035 5.13143 3.79053C5.68126 3.24071 6.42698 2.93182 7.20454 2.93182Z" fill="#1A44EE"/>
<path d="M2.31818 3.42045H0.363632V9.28409H2.31818V3.42045Z" fill="#1A44EE"/>
<path d="M1.34091 1.95455C1.88064 1.95455 2.31818 1.51701 2.31818 0.977273C2.31818 0.43754 1.88064 0 1.34091 0C0.801172 0 0.363632 0.43754 0.363632 0.977273C0.363632 1.51701 0.801172 1.95455 1.34091 1.95455Z" fill="#1A44EE"/>
</svg>
